<svg id="Layer_2" data-name="Layer 2" xmlns="http://www.w3.org/2000/svg" viewBox="0 0 350.72 76"><defs><style>.cls-3{fill:#ff0aaa}.cls-4{fill:#ffb500}.cls-5{fill:#babcbe}.cls-7{fill:#6f5db8}.cls-8{opacity:.5}.cls-10{fill:#008659}.cls-13{fill:#fff}</style></defs><path d="M37.23 49.29a.64.64 0 01.76.49C39 55 40.1 60.21 41 65.4c.09.47.12 1.15-1.07 1.59a36 36 0 01-14.14 2.19 37 37 0 01-8.14-1.12C10.44 66 6 60.4 5.44 52.55c-.36-5.23-.23-10.5-.31-15.75v-2.51H1.2A1.21 1.21 0 010 33.08c0-4.56.05-8.42.05-12.88 0-1.28.47-1.58 1.06-1.79C9.86 15.24 14.87 8.76 17.53 0h7.68a1 1 0 01.95 1v14h12.09a.85.85 0 01.85.85v17.34a1 1 0 01-1 1H26.63c0 4.21-.22 8.17.08 12.09.17 2.2 2 3.41 4.38 3.6a18.94 18.94 0 003.45-.07 20.42 20.42 0 002.69-.52z" fill="#e20000"/><path d="M293.68 67.5s-6.71 0-6.63 2.15c.06 1.6 3.32 1.06 3.32 2.34s-6.74 1.77-4.64 3.65c1.54 1.39 10.58-1.6 11-3.15s-5.47-1.66-4.25-2.64 4.76-1.39 4.76-1.39zM250 60.39l-9.72-6.16-4.08 6.43c-1.14 1.76-.79 3.35.41 4.11l5.39 3.41c1.2.76 2.78.4 3.93-1.36z" fill="#ffa0ba"/><path class="cls-3" d="M249.63 60.98l-9.71-6.16 25.97-41.47 9.72 6.16-25.98 41.47z"/><path class="cls-4" transform="rotate(-58 255.247 35.607)" d="M232.18 34.92h46.09v1.4h-46.09z"/><path class="cls-4" transform="rotate(-57.48 260.107 38.573)" d="M237.05 37.88h46.07v1.4h-46.07z"/><path class="cls-5" d="M250.7 59.31l-9.72-6.16-2.34 3.73 9.71 6.16 2.35-3.73z"/><path class="cls-4" d="M273.2 7.73l-7.31 5.62 1.13 3.5 3.75-.4 1.14 3.55 3.7-.45 1.69-9.09a9 9 0 01-2.12-1 8.84 8.84 0 01-1.98-1.73z"/><path d="M273.2 7.73a8.84 8.84 0 002 1.71 9 9 0 002.12 1l.84-4.5A.9.9 0 00276.7 5zm10.42 48.47l5.16-2.64a8.9 8.9 0 015.14 9.12 5.6 5.6 0 00.29 2.34 15.11 15.11 0 01-1.3-3.43 3.64 3.64 0 00-.15 3.67 6.06 6.06 0 01-3-3 6 6 0 00.33 3.49 2.59 2.59 0 01-2-.68 8.61 8.61 0 003.4 3.75c-8.25-1.53-7.87-12.62-7.87-12.62z" fill="#ff6f21"/><path class="cls-4" d="M288.11 65a2.59 2.59 0 002 .68 6 6 0 01-.33-3.49 6.06 6.06 0 003 3 3.64 3.64 0 01.15-3.67 15.11 15.11 0 001.3 3.43 6.6 6.6 0 003 3.44 13.55 13.55 0 01-5.69.32 8.61 8.61 0 01-3.43-3.71z"/><path class="cls-5" d="M287.73 46.97l3.1 5.59-10.47 5.48-2.79-5.86 10.16-5.21zm-10.65 4.17l-.88-1.84 9.99-5.11.99 1.78-10.1 5.17z"/><path class="cls-3" d="M276.29 49.38L256.84 8.69a4.16 4.16 0 017.41-3.79l21.95 39.4z"/><path class="cls-7" d="M295.94 45.59s-1.58 4.65-6.13 4.65-12.07-10.19-16.92-10.19a9.23 9.23 0 00-5 1.62 2.83 2.83 0 01-3.11 0 9.26 9.26 0 00-5-1.62c-4.85 0-12.37 10.19-16.92 10.19s-6.13-4.65-6.13-4.65a9.74 9.74 0 003.07 9.7c5 4.57 20.77 3.66 26.51-3v-.07.07c5.74 6.63 21.52 7.54 26.51 3a9.74 9.74 0 003.12-9.7z"/><g class="cls-8"><path class="cls-7" d="M265.88 35.04l2-3.2-5.86-12.32-2 3.21 5.86 12.31z"/></g><path class="cls-7" d="M63.46 24.11A9.68 9.68 0 0073 11.79c-1-3.53-3.63-5.3-7-6-5.78-1.28-13.69 3.52-11.56 12 .91 3.68 4.56 6.32 9.02 6.32zm14.31 28.48a.56.56 0 00-.51.29c-1.81 3.21-3.53 4.85-5.25 5.32-1.35.37-2.68 0-2.57-2.24l1.93-25.63a.9.9 0 00-.9-.91h-16.7a.91.91 0 00-.91.91l-2.47 25v.94A12.92 12.92 0 0057.79 68a12.77 12.77 0 005.49 1.24c8.5 0 15.77-8.64 17.12-15.86a.56.56 0 00-.53-.66z"/><path d="M136.14 27.37a.84.84 0 01-.38 1.08l-3.09 1.6c-4 2.05-8.07 4.08-12.1 6.14a1.24 1.24 0 01-1.75-.2 7.07 7.07 0 00-7.66-1.68 7.77 7.77 0 00-5.22 5.92c-.84 3.66.5 6.59 3.1 9 2.31 2.18 6.21 2.42 9.58.73 2.73-1.36 4-3.88 3.76-7.36a1.28 1.28 0 01.56-1c4.91-2.22 9.83-4.38 14.75-6.57.89-.4 1.28.15 1.53.81a16.51 16.51 0 011.28 6c.05 12.11-6.35 20.18-16.9 25a24.81 24.81 0 01-32.49-11c-4.49-8.65-4.1-17.41.35-26a27 27 0 0115.16-13.34 26.15 26.15 0 0115.1-.51 21.1 21.1 0 0113.7 9.81 10.85 10.85 0 01.72 1.57z" fill="#81d8c5"/><circle class="cls-10" cx="91.31" cy="15.85" r="2.91"/><circle class="cls-10" cx="87.33" cy="59.82" r="2.91"/><circle class="cls-10" cx="144.03" cy="53.4" r="2.91"/><path class="cls-10" d="M126.14 33.52a92.7 92.7 0 012.59 5.53l.88-.39q-1.19-2.85-2.57-5.6a.75.75 0 01-.07-.12l-.9.45a.54.54 0 00.07.13zM92.2 27.36a36.63 36.63 0 01-.61-10.49 16.08 16.08 0 011.29-5 7.78 7.78 0 013.35-3.77 7.79 7.79 0 015-.52 16.11 16.11 0 014.82 1.9 35.39 35.39 0 017.27 5.76h1.1a37.1 37.1 0 00-8-6.35 16.72 16.72 0 00-5.05-1.93 8.34 8.34 0 00-5.4.63 8.32 8.32 0 00-3.66 4 16.62 16.62 0 00-1.39 5.23 37.69 37.69 0 00.55 10.71c.11.59.24 1.18.36 1.77.19-.34.38-.68.58-1-.08-.3-.15-.64-.21-.94zM134 59.7a29 29 0 01-.13 4.17 15.67 15.67 0 01-1.28 5 7 7 0 01-8.3 4.25 16.11 16.11 0 01-4.82-1.9 29 29 0 01-3.41-2.22c-.37 0-.74.09-1.12.11A30.34 30.34 0 00119 71.9a16.66 16.66 0 005.06 1.95 7.78 7.78 0 009.11-4.65 16.34 16.34 0 001.43-5.2 30.48 30.48 0 00.13-5.14z"/><path class="cls-10" d="M111.27 64.61a74.21 74.21 0 01-12-17.36 75 75 0 01-6.9-19c-.2.33-.39.67-.58 1a76.86 76.86 0 006.65 18.4 74.86 74.86 0 0012.23 17.51 45 45 0 004.25 3.91c.38 0 .75-.06 1.12-.11a43.92 43.92 0 01-4.77-4.35zm-10.88 4.81a15.92 15.92 0 01-5.14.85 7.85 7.85 0 01-4.79-1.58A7.72 7.72 0 0188 64.33a15.9 15.9 0 01-.21-5.2 32.2 32.2 0 011.67-7.22c-.12-.35-.25-.71-.35-1.06a34 34 0 00-2 8.21 16.68 16.68 0 00.24 5.41 7.69 7.69 0 007.91 6.4 16.55 16.55 0 005.33-.88 30.41 30.41 0 004.81-2l-.78-.26a30.22 30.22 0 01-4.23 1.69zm25.97-57.79a15.76 15.76 0 015.12-.85 7.67 7.67 0 014.74 1.56 7.66 7.66 0 012.52 4.32 16.47 16.47 0 01.24 5.2A37 37 0 01136.24 32c-.65 1.58-1.37 3.12-2.15 4.64l.87-.39c.66-1.31 1.29-2.65 1.86-4a37.31 37.31 0 002.83-10.35 16.76 16.76 0 00-.22-5.42 8.45 8.45 0 00-2.74-4.73 8.42 8.42 0 00-5.2-1.72 16.72 16.72 0 00-5.36.87 36.41 36.41 0 00-8.87 4.42c.39 0 .78.08 1.17.13a34.56 34.56 0 017.93-3.82z"/><path class="cls-10" d="M125.65 50.47A79.44 79.44 0 00135 36.28l-.87.39a80 80 0 01-8.85 13.46 74.62 74.62 0 01-15.45 14.51 45 45 0 01-5.19 3.06l.78.26a47.08 47.08 0 004.73-2.85 75 75 0 0015.5-14.64z"/><path class="cls-10" d="M148.9 41.86a17.13 17.13 0 00-3.34-4.3 38 38 0 00-8.89-6.1c-1.16-.59-2.34-1.14-3.53-1.65l-.47.24-.5.25c1.4.58 2.78 1.2 4.13 1.88a37.32 37.32 0 018.76 5.9 16.15 16.15 0 013.24 4.09 7.66 7.66 0 01.95 5 7.77 7.77 0 01-2.64 4.31 16.11 16.11 0 01-4.48 2.68 30.17 30.17 0 01-5.13 1.57c-.15.24-.29.48-.45.71a32.37 32.37 0 005.86-1.75A17 17 0 00147 51.9a8.38 8.38 0 002.84-4.66 8.43 8.43 0 00-.94-5.38zm-67.26 1.07a16 16 0 01-3.23-4.11 7.65 7.65 0 01-.92-5 7.65 7.65 0 012.65-4.28 15.87 15.87 0 014.49-2.66 37.17 37.17 0 0110.28-2.38h.14c.26-.31.53-.61.8-.9l-1 .09a37.73 37.73 0 00-10.49 2.52 16.88 16.88 0 00-4.66 2.82 8.38 8.38 0 00-2.83 4.68 8.43 8.43 0 001 5.38 17.05 17.05 0 003.36 4.27 35.41 35.41 0 007.28 5.18c-.06-.27-.12-.54-.17-.8a33.93 33.93 0 01-6.7-4.81z"/><path class="cls-10" d="M131.82 56.56a75.25 75.25 0 01-21.23-1.06 75.44 75.44 0 01-20.21-6.61c-.69-.36-1.39-.74-2.07-1.12 0 .26.11.53.17.8l1.62.87a75.93 75.93 0 0020.38 6.64 76.1 76.1 0 0021.41 1.08c1.54-.17 3.09-.4 4.61-.72.16-.23.3-.47.45-.71a49.37 49.37 0 01-5.13.83z"/><path d="M307.53 49.59c.35-.73.78-1.16 1.46-.68l.63.39c3.53 2.16 8.74 4.5 13.05 4.5 1.67 0 3.73-.88 3.73-2.84 0-2.84-3-2.94-5.1-3.24-8.43-1.17-16.3-4.6-16.3-14.41 0-13 13.14-18.24 24.32-18.24 6 0 13.22 1.07 18.78 3.69a1.66 1.66 0 01.81 2.15l-4.62 10.77a1.56 1.56 0 01-2.13.78 24 24 0 00-10.49-2.88c-1.56 0-3.62.49-3.62 2.36 0 2.55 2.74 2.74 6.27 3.33 9 1.47 16.38 4.61 16.38 15.1 0 13.54-13.44 19.13-25.2 19.13-7.85 0-15.52-2.32-22.76-5.34a1.12 1.12 0 01-.61-1.46c1.39-3.37 5.4-13.11 5.4-13.11z" fill="#38d9f4"/><path class="cls-7" d="M343.61 63.83c0-.13-.08-.25-.13-.38a2.83 2.83 0 10-3-.28l-.2.37a21.42 21.42 0 01-6.16-1.77.32.32 0 00-.16 0 .39.39 0 00-.24 0 21.28 21.28 0 01-6.41.82l-.14-.38a2.79 2.79 0 001.52-2.31 2.83 2.83 0 10-4.5 2.09c-.06.12-.13.25-.19.38a21.54 21.54 0 01-6.09-1.62.35.35 0 00-.26-.09 21.34 21.34 0 01-6.4-.89v-.4a2.79 2.79 0 002.07-1.83 2.84 2.84 0 00-5.32-1.9 2.87 2.87 0 00.47 2.69l-.29.31a23.22 23.22 0 01-3.58-1.82l-.6 1.48a14 14 0 002.73 2.25 35.3 35.3 0 00-2.42 4.23c2.07.82 4.16 1.58 6.29 2.23a34.76 34.76 0 00.7-4.88 19.5 19.5 0 006.31-.59 19.6 19.6 0 005.55 3 37.42 37.42 0 00-1.24 4.79c1.21.1 2.43.17 3.65.17 1 0 2 0 3-.13a33.6 33.6 0 00-.57-4.49 19.76 19.76 0 005.93-2.22 19.68 19.68 0 005.48 3.09c-.13.37-.26.75-.38 1.13a23.11 23.11 0 005.2-3zm-23.23-16.24l.92.13c.69.1 1.49.18 2.25.35a36.69 36.69 0 00-.36-5.43 19.43 19.43 0 006-1.94 19.63 19.63 0 005.33 3.35 52.27 52.27 0 00-2.9 11.33.6.6 0 00.52.67l.77.1a.59.59 0 00.66-.46 25.94 25.94 0 012.43-6.07.28.28 0 01.52.08 29 29 0 01.71 6.48.59.59 0 00.51.61l.78.11a.6.6 0 00.67-.52 51.41 51.41 0 00.17-11.68 19.55 19.55 0 006.06-1.83 24.27 24.27 0 004.28 1.56 11.81 11.81 0 00-1-2 18.78 18.78 0 01-3-.42.36.36 0 00-.27 0 21.25 21.25 0 01-6.45.39c0-.13-.07-.26-.11-.38a2.82 2.82 0 10-3-.42l-.22.36a21.35 21.35 0 01-6.07-2.06.28.28 0 00-.15 0 .36.36 0 00-.25 0 21 21 0 01-6.44.52c0-.13-.07-.26-.11-.38a2.83 2.83 0 10-3-.37l-.21.37a21.74 21.74 0 01-6-1.9.38.38 0 00-.25-.11 21.4 21.4 0 01-6.36-1.18v-.4a2.83 2.83 0 10-1.6-5.38 18.2 18.2 0 00-.15 2.38 13.42 13.42 0 001.53 6.54c0-.24.07-.49.1-.73a19.79 19.79 0 006.32-.3 19.68 19.68 0 005.41 3.26 36.2 36.2 0 00-1.48 4.78c1 .27 2.05.48 3.11.66a.27.27 0 01.33-.07zm-7.27-18.31a.59.59 0 00.53.66l.77.09a.59.59 0 00.65-.47 26.13 26.13 0 012.28-6.11.28.28 0 01.52.06 28.68 28.68 0 01.83 6.47.59.59 0 00.52.6l.79.09a.6.6 0 00.66-.53 51.5 51.5 0 00-.05-11.68 19.44 19.44 0 006-1.93 19.87 19.87 0 005.39 3.35 48.82 48.82 0 00-2.72 10.21 5.43 5.43 0 012.33-.51 28.78 28.78 0 011.83-4.13.28.28 0 01.52.07 31.22 31.22 0 01.64 4.31 21.76 21.76 0 012.23.51 47.25 47.25 0 000-9.81 19.7 19.7 0 006.07-1.83 19.51 19.51 0 006 1.84c0 .24-.05.48-.08.72l.15-.35a1.66 1.66 0 00-.81-2.15c-.39-.19-.8-.34-1.21-.51a19.86 19.86 0 01-3.95-.45.36.36 0 00-.27 0 21.32 21.32 0 01-6.45.4c0-.13-.07-.26-.11-.39a2.83 2.83 0 001.63-2 52.61 52.61 0 00-5.6-.61 2.83 2.83 0 001 2.19c-.07.12-.15.24-.22.37a21.43 21.43 0 01-5.98-2.11.28.28 0 00-.15 0 .4.4 0 00-.24 0 21.18 21.18 0 01-5.92.54 29.37 29.37 0 00-5 1.73h.12a51.52 51.52 0 00-2.7 11.36z" opacity=".7"/><path class="cls-4" d="M171.91 68.49h-18.37a.94.94 0 01-.94-.94v-49a1 1 0 011-1c2.71 0 11.15 0 14.64-.06 1.48 0 2.09.36 2.11 1.94a58.66 58.66 0 00.56 6.46c.09.68.25 2 .79 2s.85-1.12 1.07-1.74a15.55 15.55 0 017.85-8.43c8.42-4.17 16.36-.18 18.66 8.9.11.46.2 1.27.79 1.27s.82-.83 1-1.33a14.89 14.89 0 0110.49-9.82c7.62-2.13 14.21 1.74 16.64 9.3a29 29 0 011.46 8.17c.16 11 .07 19.06.06 30.07v3.26a.93.93 0 01-.94.91h-17.67a.93.93 0 01-.94-.93V47.79c0-3.4.22-6-.64-8.82a3.77 3.77 0 00-3.77-2.3 4.08 4.08 0 00-4 2.45 20.21 20.21 0 00-.57 5.4c-.09 7.61 0 13.19 0 20.8 0 .34 0 1.38-.06 2.2a.93.93 0 01-.93.91h-17.69a.94.94 0 01-.93-.94V44.23a17.14 17.14 0 00-.73-5.3 4 4 0 00-7.23.07 19 19 0 00-.72 5.36c-.06 7.86 0 15.13 0 23.14a1 1 0 01-.99.99z"/><g class="cls-8"><path class="cls-13" d="M159.63 18.33h-7a.8.8 0 00-.05.21V19h7z"/></g><g class="cls-8"><path class="cls-13" d="M152.6 20.33h7.02v.62h-7.02z"/></g><g class="cls-8"><path class="cls-13" d="M152.6 22.33h7.02v.62h-7.02z"/></g><g class="cls-8"><path class="cls-13" d="M152.6 24.34h7.02v.62h-7.02z"/></g><g class="cls-8"><path class="cls-13" d="M152.6 26.34h10.08v1.22H152.6z"/></g><g class="cls-8"><path class="cls-13" d="M152.6 29.05h7.02v.62h-7.02z"/></g><g class="cls-8"><path class="cls-13" d="M152.6 31.06h7.02v.62h-7.02z"/></g><g class="cls-8"><path class="cls-13" d="M152.6 33.06h7.02v.62h-7.02z"/></g><g class="cls-8"><path class="cls-13" d="M152.6 35.06h7.02v.62h-7.02z"/></g><g class="cls-8"><path class="cls-13" d="M152.6 37.06h10.08v1.22H152.6z"/></g><g class="cls-8"><path class="cls-13" d="M152.6 39.78h7.02v.62h-7.02z"/></g><g class="cls-8"><path class="cls-13" d="M152.6 41.78h7.02v.62h-7.02z"/></g><g class="cls-8"><path class="cls-13" d="M152.6 43.78h7.02v.62h-7.02z"/></g><g class="cls-8"><path class="cls-13" d="M152.6 45.78h7.02v.62h-7.02z"/></g><g class="cls-8"><path class="cls-13" d="M152.6 47.78h10.08V49H152.6z"/></g><g class="cls-8"><path class="cls-13" d="M152.6 50.5h7.02v.62h-7.02z"/></g><g class="cls-8"><path class="cls-13" d="M152.6 52.5h7.02v.62h-7.02z"/></g><g class="cls-8"><path class="cls-13" d="M152.6 54.5h7.02v.62h-7.02z"/></g><g class="cls-8"><path class="cls-13" d="M152.6 56.5h7.02v.62h-7.02z"/></g><g class="cls-8"><path class="cls-13" d="M152.6 58.5h10.08v1.22H152.6z"/></g><g class="cls-8"><path class="cls-13" d="M152.6 61.22h7.02v.62h-7.02z"/></g><g class="cls-8"><path class="cls-13" d="M152.6 63.22h7.02v.62h-7.02z"/></g><g class="cls-8"><path class="cls-13" d="M152.6 65.22h7.02v.62h-7.02z"/></g><g class="cls-8"><path class="cls-13" d="M159.63 67.22h-7v.33a.94.94 0 00.06.29h7z"/></g><g class="cls-8"><path class="cls-13" d="M184.38 63.28h5.51v1.67h-5.51z"/></g><g class="cls-8"><path class="cls-13" d="M194.3 56.78a3.3 3.3 0 01-3.39 2.48v1.4h3.19v7.78h2V56.78z"/></g><g class="cls-8"><path class="cls-13" d="M185.22 51.4h2.47v-5.92h5.65V43.1h-5.65v-5.86h-2.47v5.86h-3.69v2.38h3.65z"/></g><g class="cls-8"><path class="cls-13" d="M188.54 21.79a3.2 3.2 0 103.27 3.21 3.23 3.23 0 00-3.27-3.21zm0 4.8a1.6 1.6 0 111.57-1.59 1.55 1.55 0 01-1.57 1.59z"/></g><g class="cls-8"><path class="cls-13" d="M180.74 28l8.43-11.78a10.65 10.65 0 00-1.71-.17l-8.59 12z"/></g><g class="cls-8"><path class="cls-13" d="M180.49 21.12a3.25 3.25 0 003.27-3.21 3 3 0 00-.29-1.3 14.27 14.27 0 00-1.59.55 1.66 1.66 0 01.18.75 1.56 1.56 0 01-3 .68 14.37 14.37 0 00-1.36.95 3.26 3.26 0 002.79 1.58z"/></g><g class="cls-8"><path class="cls-13" d="M214.57 40.7h2.86c-.73-1-3.74-5.21-4.47-6.19l4.32-6h-2.81l-2.93 4.27-3-4.27h-2.89l4.38 6-2 2.73a3 3 0 011.51 1.76l1.9-2.75z"/></g><g class="cls-8"><path class="cls-13" d="M219.16 26.59H227L222.17 31l1.21 2.05a4.48 4.48 0 011.44-.25 3.05 3.05 0 013.34 3.06c0 1.64-1.21 3-3.46 3a3.53 3.53 0 01-3.64-3.54l-2.43.56c.15 2.68 2.3 5.16 6.09 5.16a5.9 5.9 0 004.94-2.22v-4.67c0-.54-.05-1.09-.1-1.64a5.18 5.18 0 00-3.9-1.71l3.1-2.88c-.16-.65-.35-1.3-.56-1.94a15.51 15.51 0 00-.67-1.73h-8.32z"/></g><g class="cls-8"><path class="cls-13" d="M216.32 57.45a5.83 5.83 0 00-5.11-2.67 8.12 8.12 0 00-1 .08v2.29a4.15 4.15 0 011-.13 3.43 3.43 0 012.64 1.07c1 1 1.46 2.85 1.46 5.39a8.65 8.65 0 01-1.13 5h2.71a12 12 0 00.91-5 10.74 10.74 0 00-1.48-6.03z"/></g><g class="cls-8"><path class="cls-13" d="M227 58.35a3.18 3.18 0 011.61-1.85l1.12-.72v-2.16l-2.1 1.38a6 6 0 00-3.13 5.25h5.18v-1.9z"/></g><g class="cls-8"><path class="cls-13" d="M224.65 51v.53l2 .24v-.59a2.43 2.43 0 012.54-2.7 3.1 3.1 0 01.54.05v-1.76a4.37 4.37 0 00-5 4.22z"/></g><g class="cls-8"><path class="cls-13" d="M168.29 50.45a3.32 3.32 0 002.15 3.09 3.45 3.45 0 00-2.5 3.25c0 2.11 1.75 3.78 4.78 3.78h.12v-1.74h-.12c-1.77 0-2.77-1-2.77-2.21s1-2.26 2.77-2.26h.12v-1.67h-.12a2.23 2.23 0 01-2.44-2.15 2.2 2.2 0 012.44-2.11h.14v-1.65h-.15c-2.51.01-4.42 1.52-4.42 3.67z"/></g></svg>